<?xml version="1.0" standalone="no"?>
<!DOCTYPE svg PUBLIC "-//W3C//DTD SVG 20010904//EN"
 "http://www.w3.org/TR/2001/REC-SVG-20010904/DTD/svg10.dtd">
<svg version="1.0" xmlns="http://www.w3.org/2000/svg"
 width="512.000000pt" height="512.000000pt" viewBox="0 0 512.000000 512.000000"
 preserveAspectRatio="xMidYMid meet">
<metadata>
Created by potrace 1.14, written by Peter Selinger 2001-2017
</metadata>
<g transform="translate(0.000000,512.000000) scale(0.100000,-0.100000)"
fill="#000000" stroke="none">
<path d="M2408 5115 c-2 -2 -24 -6 -48 -9 -25 -3 -54 -8 -65 -10 -58 -10 -100
-18 -100 -17 0 5 -215 -73 -267 -98 -447 -206 -772 -643 -852 -1146 -10 -66
-13 -145 -9 -300 9 -394 5 -536 -16 -651 -5 -27 -12 -69 -16 -94 -9 -65 -55
-229 -120 -425 -120 -363 -149 -527 -149 -840 0 -189 3 -223 27 -336 35 -164
93 -327 176 -492 104 -207 167 -303 416 -630 l50 -66 1125 0 1125 0 70 91
c348 457 502 751 576 1103 21 96 24 137 24 330 0 312 -27 467 -146 832 -138
424 -162 562 -157 903 7 444 3 548 -21 655 -70 308 -205 558 -416 770 -209
209 -450 340 -747 406 -70 15 -139 22 -274 24 -100 2 -183 2 -186 0z"/>
</g>
</svg>
